<?xml version="1.0" encoding="UTF-8" standalone="no"?>
<!-- Created with Inkscape (http://www.inkscape.org/) -->

<svg
   xmlns:dc="http://purl.org/dc/elements/1.1/"
   xmlns:cc="http://creativecommons.org/ns#"
   xmlns:rdf="http://www.w3.org/1999/02/22-rdf-syntax-ns#"
   xmlns:svg="http://www.w3.org/2000/svg"
   xmlns="http://www.w3.org/2000/svg"
   xmlns:xlink="http://www.w3.org/1999/xlink"
   xmlns:sodipodi="http://sodipodi.sourceforge.net/DTD/sodipodi-0.dtd"
   xmlns:inkscape="http://www.inkscape.org/namespaces/inkscape"
   width="651.05316"
   height="651.05316"
   id="svg2"
   version="1.1"
   inkscape:version="0.48.2 r9819"
   sodipodi:docname="compass ring and arrow.svg"
   inkscape:export-filename="/Volumes/walt/android/projects/GPSTest/art_work/compass arrow (1200x1200).png"
   inkscape:export-xdpi="165.88507"
   inkscape:export-ydpi="165.88507">
  <defs
     id="defs4">
    <linearGradient
       inkscape:collect="always"
       id="linearGradient3939">
      <stop
         style="stop-color:#fc00ff;stop-opacity:1;"
         offset="0"
         id="stop3941" />
      <stop
         style="stop-color:#fc00ff;stop-opacity:0;"
         offset="1"
         id="stop3943" />
    </linearGradient>
    <linearGradient
       inkscape:collect="always"
       xlink:href="#linearGradient3939"
       id="linearGradient3945"
       x1="118.54056"
       y1="526.16827"
       x2="625.54056"
       y2="526.16827"
       gradientUnits="userSpaceOnUse" />
  </defs>
  <sodipodi:namedview
     id="base"
     pagecolor="#ffffff"
     bordercolor="#666666"
     borderopacity="1.0"
     inkscape:pageopacity="0.0"
     inkscape:pageshadow="2"
     inkscape:zoom="0.98994949"
     inkscape:cx="264.67966"
     inkscape:cy="333.02026"
     inkscape:document-units="px"
     inkscape:current-layer="g3779"
     showgrid="false"
     inkscape:window-width="1885"
     inkscape:window-height="1020"
     inkscape:window-x="4"
     inkscape:window-y="0"
     inkscape:window-maximized="0"
     showguides="true"
     inkscape:guide-bbox="true"
     fit-margin-top="0"
     fit-margin-left="0"
     fit-margin-right="0"
     fit-margin-bottom="0"
     inkscape:snap-grids="false"
     inkscape:snap-to-guides="false"
     inkscape:snap-global="true">
    <sodipodi:guide
       orientation="1,0"
       position="325.53103,478.61838"
       id="guide3812" />
    <sodipodi:guide
       orientation="0,1"
       position="11.343166,325.51267"
       id="guide3814" />
    <inkscape:grid
       type="xygrid"
       id="grid3818"
       empspacing="5"
       visible="true"
       enabled="true"
       snapvisiblegridlinesonly="true" />
    <sodipodi:guide
       orientation="1,0"
       position="235.53079,411.82938"
       id="guide3820" />
    <sodipodi:guide
       orientation="0,1"
       position="116.85279,169.68652"
       id="guide3822" />
    <sodipodi:guide
       orientation="1,0"
       position="415.42422,358.97224"
       id="guide3832" />
    <sodipodi:guide
       orientation="0,1"
       position="167.68532,578.81741"
       id="guide3821" />
    <sodipodi:guide
       orientation="0,1"
       position="144.45181,71.720831"
       id="guide3823" />
    <sodipodi:guide
       orientation="1,0"
       position="71.720831,548.51283"
       id="guide3825" />
    <sodipodi:guide
       orientation="1,0"
       position="578.81741,364.66507"
       id="guide3827" />
  </sodipodi:namedview>
  <metadata
     id="metadata7">
    <rdf:RDF>
      <cc:Work
         rdf:about="">
        <dc:format>image/svg+xml</dc:format>
        <dc:type
           rdf:resource="http://purl.org/dc/dcmitype/StillImage" />
        <dc:title />
      </cc:Work>
    </rdf:RDF>
  </metadata>
  <g
     inkscape:groupmode="layer"
     id="layer2"
     inkscape:label="bottom"
     style="display:inline"
     sodipodi:insensitive="true">
    <rect
       style="fill:#fc00ff;fill-opacity:1;stroke:none"
       id="rect3009"
       width="641.44684"
       height="639.42657"
       x="5.0507627"
       y="6.5758357" />
  </g>
  <g
     transform="translate(-46.513974,-200.6417)"
     style="display:inline"
     id="g3881"
     inkscape:groupmode="layer"
     inkscape:label="outer arrows"
     sodipodi:insensitive="true">
    <path
       style="fill:#000000;fill-opacity:1;stroke:#000000;stroke-width:3.38268352;stroke-linejoin:round;stroke-miterlimit:4;stroke-opacity:1;stroke-dasharray:none"
       d="M 325.53125,1.6875 315.9375,76.75 c 3.18472,-0.120578 6.37951,-0.1875 9.59375,-0.1875 3.20372,0 6.38811,0.06771 9.5625,0.1875 L 325.53125,1.6875 z M 256.9375,69.53125 259.09375,85.5 c 1.30939,-0.361101 2.61956,-0.722323 3.9375,-1.0625 L 256.9375,69.53125 z m 137.1875,0 -6.09375,14.90625 c 1.32054,0.341021 2.62554,0.731723 3.9375,1.09375 l 2.15625,-16 z M 193,96 l 6.25,14.875 c 1.1687,-0.68822 2.35042,-1.36165 3.53125,-2.03125 L 193,96 z m 265.0625,0 -9.78125,12.84375 c 1.18083,0.6696 2.36255,1.34303 3.53125,2.03125 L 458.0625,96 z m -337.09375,24.96875 24.84375,32.125 c 2.37246,-2.46896 4.80955,-4.88027 7.28125,-7.25 l -32.125,-24.875 z m 409.125,0 -32.15625,24.875 c 2.47207,2.36966 4.90843,4.7811 7.28125,7.25 l 24.875,-32.125 z M 96,193 l 12.78125,9.71875 c 0.6682,-1.17537 1.34456,-2.33666 2.03125,-3.5 L 96,193 z m 459.0625,0 -14.8125,6.21875 c 0.68669,1.16334 1.36305,2.32463 2.03125,3.5 L 555.0625,193 z M 69.5,256.9375 84.34375,263 c 0.338148,-1.30631 0.672506,-2.60836 1.03125,-3.90625 L 69.5,256.9375 z m 512.0625,0 -15.875,2.15625 c 0.35874,1.29789 0.6931,2.59994 1.03125,3.90625 l 14.84375,-6.0625 z m -504.96875,59.03125 -74.90625,9.5625 74.90625,9.5625 c -0.120265,-3.17768 -0.1875,-6.35541 -0.1875,-9.5625 0,-3.20176 0.06763,-6.39005 0.1875,-9.5625 z m 497.875,0 c 0.11985,3.17226 0.1875,6.36093 0.1875,9.5625 0,3.20691 -0.0672,6.385 -0.1875,9.5625 l 74.90625,-9.5625 -74.90625,-9.5625 z M 84.34375,388.0625 69.5,394.125 85.375,391.96875 c -0.358744,-1.29789 -0.693102,-2.59994 -1.03125,-3.90625 z m 482.375,0 c -0.33815,1.30631 -0.67251,2.60836 -1.03125,3.90625 l 15.875,2.15625 -14.84375,-6.0625 z M 108.78125,448.34375 96,458.0625 l 14.8125,-6.21875 c -0.68669,-1.16334 -1.36305,-2.32463 -2.03125,-3.5 z m 433.5,0 c -0.6682,1.17537 -1.34456,2.33666 -2.03125,3.5 l 14.8125,6.21875 -12.78125,-9.71875 z m -396.46875,49.625 -24.84375,32.125 32.15625,-24.875 c -2.47732,-2.37469 -4.93486,-4.77565 -7.3125,-7.25 z m 359.4375,0 c -2.37764,2.47435 -4.83518,4.87531 -7.3125,7.25 l 32.15625,24.875 -24.84375,-32.125 z m -306,42.21875 -6.25,14.90625 9.78125,-12.875 c -1.18189,-0.67018 -2.3615,-1.34241 -3.53125,-2.03125 z m 252.5625,0 c -1.16975,0.68884 -2.34936,1.36107 -3.53125,2.03125 l 9.78125,12.875 -6.25,-14.90625 z m -192.6875,25.34375 -2.1875,16.03125 6.125,-14.96875 c -1.31976,-0.34048 -2.62631,-0.70104 -3.9375,-1.0625 z m 132.8125,0 c -1.31113,0.36161 -2.6178,0.72187 -3.9375,1.0625 l 6.125,14.96875 -2.1875,-16.03125 z m -76,8.78125 9.59375,75.0625 9.5625,-75.0625 c -3.17421,0.11978 -6.35897,0.1875 -9.5625,0.1875 -3.21406,0 -6.40921,-0.0669 -9.59375,-0.1875 z"
       transform="translate(46.513974,200.6417)"
       id="path3885"
       inkscape:connector-curvature="0" />
  </g>
  <g
     transform="translate(-46.513974,-200.6417)"
     style="display:inline"
     inkscape:label="big circle"
     id="g3779"
     inkscape:groupmode="layer"
     sodipodi:insensitive="true">
    <path
       transform="matrix(1.5818101,0,0,1.5818101,-188.93041,-378.6223)"
       d="m 512.85713,572.00507 a 158.21428,158.21428 0 1 1 -316.42856,0 158.21428,158.21428 0 1 1 316.42856,0 z"
       sodipodi:ry="158.21428"
       sodipodi:rx="158.21428"
       sodipodi:cy="572.00507"
       sodipodi:cx="354.64285"
       id="path3781"
       style="fill:none;stroke:#000000;stroke-width:4;stroke-linejoin:round;stroke-miterlimit:4;stroke-opacity:1;stroke-dasharray:none"
       sodipodi:type="arc" />
  </g>
  <g
     inkscape:groupmode="layer"
     id="layer5"
     inkscape:label="letters"
     transform="translate(-46.513974,-200.6417)"
     style="display:inline"
     sodipodi:insensitive="true">
    <text
       xml:space="preserve"
       style="font-size:40px;font-style:normal;font-weight:normal;line-height:125%;letter-spacing:0px;word-spacing:0px;fill:#000000;fill-opacity:1;stroke:none;font-family:Sans"
       x="357.68005"
       y="315.21933"
       id="text3791"
       sodipodi:linespacing="125%"><tspan
         sodipodi:role="line"
         id="tspan3793"
         x="357.68005"
         y="315.21933"
         style="font-size:48px;font-style:normal;font-variant:normal;font-weight:normal;font-stretch:normal;text-align:start;line-height:125%;writing-mode:lr-tb;text-anchor:start;font-family:Britannic Bold;-inkscape-font-specification:'Britannic Bold,'">N</tspan></text>
    <text
       xml:space="preserve"
       style="font-size:40px;font-style:normal;font-variant:normal;font-weight:normal;font-stretch:normal;text-align:start;line-height:125%;letter-spacing:0px;word-spacing:0px;writing-mode:lr-tb;text-anchor:start;fill:#000000;fill-opacity:1;stroke:none;font-family:Britannic Bold;-inkscape-font-specification:'Britannic Bold,'"
       x="-544.94281"
       y="160.96484"
       id="text3795"
       sodipodi:linespacing="125%"
       transform="matrix(0,-1,1,0,0,0)"><tspan
         sodipodi:role="line"
         id="tspan3797"
         x="-544.94281"
         y="160.96484"
         style="font-size:48px;font-style:normal;font-variant:normal;font-weight:normal;font-stretch:normal;text-align:start;line-height:125%;writing-mode:lr-tb;text-anchor:start;font-family:Britannic Bold;-inkscape-font-specification:'Britannic Bold,'">W</tspan></text>
    <text
       xml:space="preserve"
       style="font-size:40px;font-style:normal;font-variant:normal;font-weight:normal;font-stretch:normal;text-align:start;line-height:125%;letter-spacing:0px;word-spacing:0px;writing-mode:lr-tb;text-anchor:start;fill:#000000;fill-opacity:1;stroke:none;font-family:Britannic Bold;-inkscape-font-specification:'Britannic Bold,'"
       x="-385.21912"
       y="-738.02679"
       id="text3799"
       sodipodi:linespacing="125%"
       transform="scale(-1,-1)"><tspan
         sodipodi:role="line"
         id="tspan3801"
         x="-385.21912"
         y="-738.02679"
         style="font-size:48px;font-style:normal;font-variant:normal;font-weight:normal;font-stretch:normal;text-align:start;line-height:125%;writing-mode:lr-tb;text-anchor:start;font-family:Britannic Bold;-inkscape-font-specification:'Britannic Bold,'">S</tspan></text>
    <text
       xml:space="preserve"
       style="font-size:40px;font-style:normal;font-variant:normal;font-weight:normal;font-stretch:normal;text-align:start;line-height:125%;letter-spacing:0px;word-spacing:0px;writing-mode:lr-tb;text-anchor:start;fill:#000000;fill-opacity:1;stroke:none;font-family:Britannic Bold;-inkscape-font-specification:'Britannic Bold,'"
       x="512.09515"
       y="-582.26532"
       id="text3803"
       sodipodi:linespacing="125%"
       transform="matrix(0,1,-1,0,0,0)"
       inkscape:transform-center-x="6.4285714"
       inkscape:transform-center-y="-15"><tspan
         sodipodi:role="line"
         id="tspan3805"
         x="512.09515"
         y="-582.26532"
         style="font-size:48px;font-style:normal;font-variant:normal;font-weight:normal;font-stretch:normal;text-align:start;line-height:125%;writing-mode:lr-tb;text-anchor:start;font-family:Britannic Bold;-inkscape-font-specification:'Britannic Bold,'">E</tspan></text>
  </g>
  <g
     inkscape:groupmode="layer"
     id="layer6"
     inkscape:label="red arrow"
     transform="translate(-46.513974,-200.6417)"
     style="display:inline"
     sodipodi:insensitive="true">
    <path
       style="fill:#ff0000;fill-opacity:1;stroke:#000000;stroke-width:3;stroke-linecap:butt;stroke-linejoin:miter;stroke-miterlimit:4;stroke-opacity:1;stroke-dasharray:none;display:inline"
       d="M 372.045,327.36218 282.04476,682.00835 372.045,561.18218 461.93819,682.00835 z"
       id="path3816"
       inkscape:connector-curvature="0"
       sodipodi:nodetypes="ccccc" />
  </g>
</svg>
